<svg xmlns="http://www.w3.org/2000/svg" xmlns:xlink="http://www.w3.org/1999/xlink" version="1.1" viewBox="536.5 0 427 93"><svg xml:space="preserve" width="1500" height="93" data-version="2" data-id="lg_aaMyHSLXuDwrthVviE" viewBox="0 0 427 93" x="0" y="0"><rect width="100%" height="100%" fill="transparent"/><path fill="#fdd017" d="m59.945 72.193-7.8-20h-32.4l-7.8 19.8-8.1-3.3 27.4-67.5h10.4l27 67.5Zm-37.2-28h26.3l-13.1-33.6Z"/><rect width="64.8" height="71" x="-32.4" y="-35.5" fill="none" rx="0" ry="0" transform="translate(36.74 37.2)"/><path d="m87.405 71.193-18.19-43.15 7.14-2.96 15.4 37.23 15.4-37.23 6.69 2.96-18.27 43.15Z"/><rect width="44.63" height="46.11" x="-22.32" y="-23.05" fill="none" rx="0" ry="0" transform="translate(92.03 48.64)"/><path d="M120.545 71.193v-45.24h7.57v9.83q1.13-2.87 3.05-5.35 1.91-2.48 4.78-4 2.87-1.53 6.7-1.53 1.31 0 2.61.14 1.31.13 2.18.39l-2.35 8.09q-1.66-.7-3.92-.7-3.22 0-6.13 1.83-2.92 1.83-4.79 5.65-1.87 3.83-1.87 9.75v21.14Z"/><rect width="26.89" height="46.29" x="-13.45" y="-23.14" fill="none" rx="0" ry="0" transform="translate(134.49 48.55)"/><path d="M170.575 72.233q-6.44 0-11.57-3-5.14-3-8.05-8.35-2.91-5.35-2.91-12.31 0-7.31 2.95-12.62 2.96-5.3 8.09-8.17 5.14-2.88 11.49-2.88 6.35 0 11.44 2.88 5.09 2.87 8.09 8.13 3 5.26 3 12.48 0 7.23-2.96 12.58-2.95 5.35-8.04 8.3-5.09 2.96-11.53 2.96m0-6.96q6.87 0 10.7-4.65 3.83-4.66 3.83-12.05 0-4.53-1.92-8.31-1.91-3.78-5.17-6.09-3.27-2.31-7.44-2.31-6.87 0-10.7 4.53-3.83 4.52-3.83 12 0 4.53 1.91 8.4 1.92 3.87 5.18 6.18 3.26 2.3 7.44 2.3"/><rect width="45.06" height="47.33" x="-22.53" y="-23.66" fill="none" rx="0" ry="0" transform="translate(171.07 49.07)"/><path d="M219.556 72.233q-5.57 0-10.18-2.87-4.61-2.87-7.31-8.13-2.69-5.27-2.69-12.4 0-6.87 2.74-12.27 2.74-5.39 7.3-8.52 4.57-3.14 10.05-3.14 4.53 0 7.79 1.83t5.09 3.74V6.813h7.83v53.42q0 3.3 1.61 4.3t3.52 1l-1.65 6.09q-8.27 0-10.09-6.61-1.92 2.7-5.35 4.96-3.44 2.26-8.66 2.26m1.74-6.96q3.22 0 6.13-1.52 2.92-1.52 4.92-3.96v-22.44q-1.65-2.09-4.61-3.88-2.96-1.78-6.53-1.78-4.17 0-7.31 2.26-3.13 2.26-4.82 6.05-1.7 3.78-1.7 8.57 0 4.78 1.83 8.57 1.82 3.78 5 5.96 3.17 2.17 7.09 2.17"/><rect width="45.93" height="65.42" x="-22.96" y="-32.71" fill="none" rx="0" ry="0" transform="translate(222.84 40.02)"/><path d="M271.845 72.233q-9.75 0-15.45-6.22-5.69-6.22-5.69-17.44 0-6.79 2.56-12.14 2.57-5.35 7.18-8.44 4.61-3.09 10.7-3.09 6.53 0 10.83 2.83 4.31 2.83 6.48 7.61 2.18 4.79 2.18 10.53 0 3.05-.26 5.92h-31.67q.78 6.35 4.44 9.92 3.65 3.56 9.65 3.56 3.92 0 7.05-.82 3.13-.83 6-2.14l1.83 6.7q-3.13 1.4-7.05 2.31-3.91.91-8.78.91m-13.23-26.79h24.8q0-6.62-3.31-10.18-3.3-3.57-9.13-3.57-5.05 0-8.36 3.52-3.3 3.53-4 10.23"/><rect width="39.93" height="47.33" x="-19.96" y="-23.66" fill="none" rx="0" ry="0" transform="translate(271.17 49.07)"/><path d="M318.035 72.233q-9.74 0-15.44-6.22-5.7-6.22-5.7-17.44 0-6.79 2.57-12.14 2.57-5.35 7.18-8.44 4.61-3.09 10.7-3.09 6.52 0 10.83 2.83 4.31 2.83 6.48 7.61 2.18 4.79 2.18 10.53 0 3.05-.27 5.92h-31.66q.78 6.35 4.43 9.92 3.66 3.56 9.66 3.56 3.92 0 7.05-.82 3.13-.83 6-2.14l1.83 6.7q-3.13 1.4-7.05 2.31-3.91.91-8.79.91m-13.22-26.79h24.79q0-6.62-3.3-10.18-3.31-3.57-9.14-3.57-5.04 0-8.35 3.52-3.3 3.53-4 10.23"/><rect width="39.94" height="47.33" x="-19.97" y="-23.66" fill="none" rx="0" ry="0" transform="translate(317.37 49.07)"/><path d="M347.795 90.333v-52.81q0-2.96-1.44-4.22-1.43-1.26-3.7-1.26l1.66-6.09q8 0 10 6.35.87-1.31 2.83-3.05 1.96-1.74 4.87-3.04 2.92-1.31 6.66-1.31 5.22 0 9.79 2.75 4.56 2.74 7.35 7.91 2.78 5.18 2.78 12.57 0 7.22-2.78 12.66-2.79 5.44-7.27 8.44-4.48 3-9.7 3-4 0-7.48-1.61-3.48-1.61-5.74-3.69v23.4Zm19.49-25.06q5.91 0 9.61-4.65 3.7-4.66 3.7-12.23 0-5.22-1.87-8.96-1.87-3.74-4.96-5.74t-6.83-2q-3.74 0-6.74 1.87-3.01 1.87-4.57 4.05v22.27q2.26 2.35 5.22 3.87t6.44 1.52"/><rect width="45.94" height="65.43" x="-22.97" y="-32.72" fill="none" rx="0" ry="0" transform="translate(366.13 58.12)"/><path fill="#fdd017" d="M423.118 73.988c-.112-.339-.454-.519-.765-.405l-8.394-1.127-4.676-8.77a.62.62 0 0 0-.615-.624.62.62 0 0 0-.616.623l-4.692 8.804-8.15 1.095c-.31-.115-.653.066-.766.404-.109.335.051.698.361.813l6.466 6.938-1.64 9.044a.655.655 0 0 0 .128.887c.27.216.653.167.85-.107l8.057-4.163 8.057 4.163a.584.584 0 0 0 .847.107.653.653 0 0 0 .131-.887l-1.604-8.835 6.66-7.147c.311-.115.471-.478.361-.813"/></svg></svg>