<?xml version="1.0" encoding="UTF-8"?>
<svg version="1.1" xmlns="http://www.w3.org/2000/svg" width="500" height="500">
<path d="M0 0 C18.69775507 -0.35115658 37.39483692 -0.61527509 56.09521103 -0.77718258 C64.77927943 -0.85437538 73.46129369 -0.95950907 82.14404297 -1.1315918 C89.7164296 -1.28159616 97.28732843 -1.37798511 104.86115956 -1.41132742 C108.86859161 -1.43080743 112.87176968 -1.47620737 116.87783051 -1.58595085 C143.17296468 -2.27847106 143.17296468 -2.27847106 149.49621582 3.17111206 C152.209427 6.17572038 154.15917579 9.37347544 155.93689823 12.9967308 C157.79519669 16.49843888 160.30140163 19.52164534 162.75 22.625 C163.7423064 23.9546699 164.73351755 25.28515947 165.72265625 26.6171875 C169.50528038 31.69118192 173.34691761 36.71981727 177.1875 41.75 C182.00403426 48.06120494 186.80033233 54.38501644 191.55078125 60.74609375 C194.21364302 64.29696052 196.91441819 67.81876111 199.61010742 71.34472656 C206.12476309 79.86760197 212.56255002 88.43816418 218.90307617 97.09130859 C223.86704363 103.85278327 228.94707455 110.52066455 234.0625 117.16796875 C237.07611055 121.08627169 240.04263114 125.03914451 243 129 C249.82154583 121.77780697 256.48042655 114.53821931 262.69140625 106.77734375 C265.35279458 103.57557201 268.15462246 100.53765082 271 97.5 C274.64888449 93.60423719 278.15698438 89.66665716 281.5 85.5 C285.31994011 80.73891522 289.38938819 76.28726975 293.55859375 71.8359375 C296.67568554 68.48883131 299.63581113 65.06985859 302.5 61.5 C306.31994011 56.73891522 310.38938819 52.28726975 314.55859375 47.8359375 C317.67568554 44.48883131 320.63581113 41.06985859 323.5 37.5 C326.84302754 33.333328 330.35122317 29.39588008 334 25.5 C338.46455202 20.73119077 342.69700756 15.84347753 346.76953125 10.73046875 C347.50558594 9.82941406 348.24164063 8.92835937 349 8 C349.38653748 7.3435701 349.77307495 6.6871402 350.17132568 6.01081848 C352.78765741 2.13865529 354.75050881 0.25796953 359.41191101 -0.704422 C363.77439313 -0.92710736 368.07006353 -0.90070628 372.43359375 -0.78125 C374.03781809 -0.76631264 375.64207914 -0.75493267 377.24635315 -0.74694824 C381.45098188 -0.71652982 385.65336859 -0.63806253 389.8571167 -0.54931641 C394.15378492 -0.46719828 398.45081865 -0.43088183 402.74804688 -0.390625 C411.16638886 -0.30505224 419.58291487 -0.16867734 428 0 C423.85032024 7.51122692 423.85032024 7.51122692 421.08203125 10.359375 C420.55464355 10.91189941 420.02725586 11.46442383 419.48388672 12.03369141 C418.9323291 12.60007324 418.38077148 13.16645508 417.8125 13.75 C413.04279342 18.75932343 408.56746436 23.8864273 404.2421875 29.2890625 C401.7609345 32.28904435 399.15135693 35.15153651 396.5 38 C393.04835946 41.70859535 389.73477706 45.48506077 386.5625 49.4375 C382.71889943 54.21621628 378.63039836 58.69157687 374.44165039 63.16381836 C371.32446055 66.51099327 368.36426202 69.93005023 365.5 73.5 C361.16072656 78.90436782 356.49603585 83.94955123 351.7734375 89.015625 C347.46894486 93.63353761 343.35687595 98.40761607 339.26171875 103.2109375 C338.23716908 104.41162041 337.21242354 105.61213621 336.1875 106.8125 C335.67018311 107.41868164 335.15286621 108.02486328 334.61987305 108.64941406 C331.41497771 112.3907082 328.14790722 116.06115383 324.8125 119.6875 C321.62263156 123.16136309 318.57951106 126.69910025 315.625 130.375 C311.75781137 135.1714071 307.65019284 139.6704146 303.44189453 144.16357422 C299.55282105 148.33953643 295.94969042 152.69255909 292.37890625 157.14453125 C287.80974874 162.6290208 282.88668854 167.79910814 278 173 C279.31231816 176.65862057 280.89389437 179.45359409 283.2734375 182.51953125 C284.25376953 183.79280273 284.25376953 183.79280273 285.25390625 185.09179688 C285.95386719 185.98962891 286.65382813 186.88746094 287.375 187.8125 C288.84165769 189.71444915 290.30779965 191.6167961 291.7734375 193.51953125 C292.4962793 194.45490723 293.21912109 195.3902832 293.96386719 196.35400391 C296.67578924 199.8782019 299.34247724 203.43471415 302 207 C309.26481363 216.71870623 316.63768554 226.35509179 324 236 C331.8453793 246.27774127 339.68818703 256.55586148 347.42944336 266.91235352 C351.52431614 272.38338893 355.66547541 277.81842859 359.8125 283.25 C365.07441192 290.1425044 370.30579363 297.05633226 375.5 304 C380.61515548 310.83612352 385.76025408 317.648268 390.9375 324.4375 C391.93112549 325.74050049 391.93112549 325.74050049 392.94482422 327.06982422 C396.31788188 331.49056784 399.69485713 335.90829281 403.07421875 340.32421875 C410.10870152 349.52504476 417.07140439 358.7695033 423.91796875 368.11108398 C427.76309598 373.34820434 431.66888266 378.53377849 435.625 383.6875 C436.15077637 384.37376465 436.67655273 385.0600293 437.21826172 385.76708984 C439.38583985 388.59544156 441.55450247 391.42287535 443.73193359 394.24365234 C445.43215818 396.44905396 447.12307786 398.66131788 448.8125 400.875 C449.33473145 401.54748779 449.85696289 402.21997559 450.39501953 402.9128418 C454 407.65884819 454 407.65884819 454 411 C435.85852977 411.42171533 417.71834191 411.73848009 399.57301903 411.93261909 C391.14629024 412.02518693 382.7226174 412.15120767 374.29785156 412.35791016 C366.94884133 412.53813189 359.60204427 412.65362866 352.25088561 412.69359291 C348.36208217 412.71693859 344.47960531 412.77116821 340.59284592 412.90314102 C317.0218074 413.67309499 317.0218074 413.67309499 310.33704758 409.23006821 C305.96043521 405.08705408 302.89708946 400.39098557 300.11798859 395.07478333 C298.69049447 392.42561407 296.92196031 390.16856278 294.9921875 387.8671875 C289.09336152 380.3161105 283.26359011 372.72229918 277.53857422 365.03857422 C273.75623415 359.97501806 269.89192088 354.97968195 266 350 C261.01072492 343.61561632 256.10206158 337.17863821 251.25561523 330.68530273 C247.42238263 325.55193181 243.53203706 320.46595293 239.6171875 315.39453125 C234.95679451 309.3567969 230.33515533 303.28924559 225.70410156 297.22900391 C223.96780374 294.95788656 222.2301784 292.68779066 220.4921875 290.41796875 C219.63040894 289.29213379 219.63040894 289.29213379 218.7512207 288.14355469 C217.66410917 286.72341015 216.57672825 285.30347177 215.48901367 283.88378906 C211.96377994 279.27731717 208.47257194 274.64629046 205 270 C196.26916023 278.63383044 187.98177742 287.63469647 180.30859375 297.22265625 C177.64720542 300.42442799 174.84537754 303.46234918 172 306.5 C168.35111551 310.39576281 164.84301562 314.33334284 161.5 318.5 C157.68005989 323.26108478 153.61061181 327.71273025 149.44140625 332.1640625 C146.32431446 335.51116869 143.36418887 338.93014141 140.5 342.5 C136.68005989 347.26108478 132.61061181 351.71273025 128.44140625 356.1640625 C125.32431446 359.51116869 122.36418887 362.93014141 119.5 366.5 C115.68005989 371.26108478 111.61061181 375.71273025 107.44140625 380.1640625 C103.55055391 384.34202608 99.94508804 388.69629636 96.375 393.15234375 C93.03094083 397.16191469 89.4791069 400.96527344 85.89648438 404.76171875 C83.12564632 407.64468718 83.12564632 407.64468718 81 411 C57.24 411 33.48 411 9 411 C11.24771853 405.38070367 11.24771853 405.38070367 13.72265625 402.8359375 C14.52328491 401.99760376 14.52328491 401.99760376 15.34008789 401.14233398 C15.90848389 400.55911377 16.47687988 399.97589355 17.0625 399.375 C21.06219108 395.17771199 24.94051696 390.97163686 28.5625 386.4375 C31.8825224 382.28899495 35.37051167 378.37474704 39 374.5 C42.64888449 370.60423719 46.15698438 366.66665716 49.5 362.5 C53.31994011 357.73891522 57.38938819 353.28726975 61.55859375 348.8359375 C64.67568554 345.48883131 67.63581113 342.06985859 70.5 338.5 C74.31994011 333.73891522 78.38938819 329.28726975 82.55859375 324.8359375 C85.67568554 321.48883131 88.63581113 318.06985859 91.5 314.5 C95.3205849 309.73811158 99.39067803 305.28564406 103.56079102 300.83374023 C106.65780084 297.508452 109.59621684 294.11280061 112.4375 290.5625 C116.46446744 285.54158052 120.79214703 280.87578183 125.20068359 276.19384766 C129.24268587 271.87773122 132.99595417 267.39496369 136.69140625 262.77734375 C139.35279673 259.57556942 142.15465085 256.53768068 145 253.5 C149.46648529 248.73046435 153.66175727 243.82094829 157.75390625 238.72265625 C161.65901019 233.98899112 165.83009828 229.50070812 170 225 C166.23096236 219.0138814 162.05625824 213.55937969 157.53515625 208.125 C154.67921654 204.64800852 151.99635774 201.04799586 149.3125 197.4375 C144.96332175 191.59156745 140.54694331 185.80536465 136.0625 180.0625 C129.85513313 172.11106933 123.71245617 164.11257922 117.59570312 156.09130859 C115.49278104 153.33524517 113.38576846 150.58232276 111.27880859 147.8293457 C105.77987713 140.64395152 100.29375904 133.44888269 94.8125 126.25 C89.7217613 119.56458651 84.61793021 112.88998676 79.48828125 106.234375 C75.91541395 101.59535123 72.36423577 96.93971023 68.80908203 92.28710938 C65.61000476 88.10175161 62.40334257 83.92248818 59.1875 79.75 C52.79609774 71.44840482 46.45592885 63.10775355 40.10986328 54.77148438 C36.678208 50.26371409 33.24547508 45.7567652 29.8125 41.25 C29.1510498 40.38133301 28.48959961 39.51266602 27.80810547 38.61767578 C24.67404009 34.50319855 21.53602359 30.39189005 18.38671875 26.2890625 C1.37550487 4.12651462 1.37550487 4.12651462 0 0 Z M85 42 C85.53657227 42.7118042 85.53657227 42.7118042 86.08398438 43.43798828 C88.7965716 47.04453617 91.49290672 50.66159077 94.15625 54.3046875 C100.53459028 63.02768397 107.01140246 71.65271731 113.67773438 80.15771484 C118.0266436 85.71720753 122.27976623 91.34234949 126.5 97 C131.82398138 104.13546622 137.23622659 111.19200734 142.72387695 118.20214844 C147.11867615 123.83076011 151.41666537 129.52690865 155.6875 135.25 C160.36283476 141.5138033 165.09013256 147.72388659 169.94262695 153.85131836 C175.16449202 160.45116221 180.25481152 167.15094879 185.35595703 173.84423828 C187.47670778 176.62508609 189.602186 179.40229939 191.7277832 182.17944336 C197.22478311 189.36170437 202.70845964 196.55403124 208.1875 203.75 C213.28218281 210.4405931 218.39026145 217.1201386 223.5234375 223.78125 C228.14169997 229.77781647 232.73091344 235.79672214 237.32666016 241.81054688 C240.05033264 245.37428992 242.77521663 248.93710631 245.5 252.5 C246.58333938 253.91666204 247.66667271 255.33332872 248.75 256.75 C249.28625 257.45125 249.8225 258.1525 250.375 258.875 C281.25 299.25000001 281.25 299.25000001 282.87573242 301.37597656 C283.95660017 302.78940651 285.03749201 304.20281804 286.1184082 305.61621094 C288.86466505 309.20724701 291.61047303 312.7986248 294.35546875 316.390625 C301.72459196 326.03254887 309.10830692 335.66291895 316.5234375 345.26953125 C316.94858643 345.82092773 317.37373535 346.37232422 317.81176758 346.94042969 C320.15726494 349.99188763 320.15726494 349.99188763 322.5534668 353.00341797 C324 355 324 355 325.65942383 358.04736328 C329.1637462 364.08322622 329.1637462 364.08322622 334.94540405 367.62576294 C340.47382869 368.49708009 346.0029049 368.09493244 351.5625 367.75 C353.25566954 367.68972064 354.94904594 367.63498274 356.64257812 367.5859375 C360.76687811 367.45451404 364.88113737 367.24806678 369 367 C368.46777832 366.29363403 368.46777832 366.29363403 367.92480469 365.57299805 C364.58940171 361.13717216 361.28688324 356.67870496 358.00439453 352.20361328 C352.24531953 344.35440919 346.41252248 336.57835984 340.45214844 328.88085938 C331.52251816 317.31497644 322.71463522 305.66358931 314.07470703 293.87988281 C308.73684818 286.6121477 303.26444633 279.45273553 297.76855469 272.30419922 C294.41874317 267.93982579 291.08453758 263.56354781 287.75 259.1875 C286.71576904 257.83035889 286.71576904 257.83035889 285.66064453 256.44580078 C281.56487481 251.06694729 277.49454082 245.67078513 273.44921875 240.25390625 C270.7864255 236.70313084 268.08570778 233.18142959 265.39013672 229.65551758 C259.4808025 221.92477517 253.62042471 214.16596409 247.875 206.3125 C242.78988446 199.36372955 237.56425753 192.54306131 232.24951172 185.76879883 C227.45607521 179.63820357 222.84149945 173.38803384 218.25 167.10546875 C214.25873194 161.66202057 210.16641858 156.31032368 206 151 C200.61156204 144.13214715 195.40054674 137.15298024 190.25 130.10546875 C186.25873194 124.66202057 182.16641858 119.31032368 178 114 C172.61156204 107.13214715 167.40054674 100.15298024 162.25 93.10546875 C157.70547145 86.90746218 153.01371334 80.83806757 148.26757812 74.79370117 C143.30344308 68.44823552 138.51792535 61.98027563 133.79296875 55.45507812 C133.25285156 54.71322266 132.71273437 53.97136719 132.15625 53.20703125 C131.69025391 52.5622583 131.22425781 51.91748535 130.74414062 51.25317383 C130.16857422 50.50962646 129.59300781 49.7660791 129 49 C128.39628067 48.11100761 128.39628067 48.11100761 127.78036499 47.20405579 C125.03170347 43.45747011 125.03170347 43.45747011 121.00091553 41.39073181 C118.66996377 41.19160223 116.43853097 41.21089695 114.1015625 41.31640625 C112.84912247 41.3312632 112.84912247 41.3312632 111.57138062 41.34642029 C108.92075235 41.38541426 106.27436243 41.47319294 103.625 41.5625 C101.82167467 41.59763392 100.018284 41.6295693 98.21484375 41.65820312 C93.80827831 41.73512526 89.40485603 41.85579152 85 42 Z " fill="#F6F6F6" transform="translate(25,46)"/>
<path d="M0 0 C47.85 0 95.7 0 145 0 C145.99 1.98 145.99 1.98 147 4 C146.01 3.505 146.01 3.505 145 3 C143.12510037 2.8944771 141.24645284 2.85337317 139.36862183 2.84178162 C137.57228302 2.82709839 137.57228302 2.82709839 135.73965454 2.81211853 C134.40570108 2.806214 133.07174721 2.80040357 131.73779297 2.79467773 C130.33849802 2.78510153 128.93920597 2.7750916 127.53991699 2.76467896 C123.73439024 2.73759588 119.92885105 2.71660478 116.123281 2.69667697 C112.14874333 2.67483837 108.17424417 2.6474393 104.19973755 2.62062073 C96.67039056 2.57066504 89.14102222 2.5257369 81.61163342 2.48259836 C73.04098712 2.43325054 64.47037945 2.37832332 55.8997705 2.32291877 C38.26654952 2.20905458 20.6332921 2.10222522 3 2 C3.33 3.32 3.66 4.64 4 6 C1.7522025 3.94766315 0.9977758 2.99332739 0 0 Z " fill="#ABABAB" transform="translate(25,46)"/>
<path d="M0 0 C0.33 1.32 0.66 2.64 1 4 C0.01 4.33 -0.98 4.66 -2 5 C-2.33 5.66 -2.66 6.32 -3 7 C19.77 7 42.54 7 66 7 C66 7.66 66 8.32 66 9 C42.24 9 18.48 9 -6 9 C-4.22157001 4.55392503 -3.35585467 3.0202692 0 0 Z " fill="#9E9E9E" transform="translate(40,448)"/>
<path d="M0 0 C1.32 0.33 2.64 0.66 4 1 C4 1.66 4 2.32 4 3 C49.87 3 95.74 3 143 3 C143 3.33 143 3.66 143 4 C96.47 4 49.94 4 2 4 C1.34 2.68 0.68 1.36 0 0 Z " fill="#D2D2D2" transform="translate(335,452)"/>
<path d="M0 0 C1.9375 0.3125 1.9375 0.3125 4 1 C4.495 2.485 4.495 2.485 5 4 C5.66 4.33 6.32 4.66 7 5 C7 6.32 7 7.64 7 9 C-5.54 9 -18.08 9 -31 9 C-31 8.01 -31 7.02 -31 6 C-19.45 6 -7.9 6 4 6 C2.68 4.35 1.36 2.7 0 1 C0 0.67 0 0.34 0 0 Z " fill="#787878" transform="translate(389,406)"/>
<path d="M0 0 C4.48841123 4.23386995 8.18659924 8.92300503 11.9375 13.8125 C12.53240234 14.58142578 13.12730469 15.35035156 13.74023438 16.14257812 C17.53844493 21.06157213 21.2847046 26.01814599 25 31 C24.67 31.66 24.34 32.32 24 33 C22.515 32.505 22.515 32.505 21 32 C20.3125 29.9375 20.3125 29.9375 20 28 C19.34 28 18.68 28 18 28 C17.67 26.68 17.34 25.36 17 24 C16.34 24 15.68 24 15 24 C14.67 22.68 14.34 21.36 14 20 C13.34 20 12.68 20 12 20 C11.67 18.68 11.34 17.36 11 16 C10.34 16 9.68 16 9 16 C8.67 14.68 8.34 13.36 8 12 C7.34 12 6.68 12 6 12 C5.67 10.68 5.34 9.36 5 8 C4.34 8 3.68 8 3 8 C0 2.25 0 2.25 0 0 Z " fill="#8E8E8E" transform="translate(393,342)"/>
<path d="M0 0 C4.00814928 3.83228898 7.42828753 7.92522322 10.8125 12.3125 C11.31458984 12.95767578 11.81667969 13.60285156 12.33398438 14.26757812 C13.55905681 15.84267125 14.7799632 17.42100316 16 19 C15.67 19.66 15.34 20.32 15 21 C14.01 20.67 13.02 20.34 12 20 C11.3125 17.9375 11.3125 17.9375 11 16 C10.34 16 9.68 16 9 16 C8.67 14.68 8.34 13.36 8 12 C7.34 12 6.68 12 6 12 C5.67 10.68 5.34 9.36 5 8 C4.34 8 3.68 8 3 8 C0 2.25 0 2.25 0 0 Z " fill="#8E8E8E" transform="translate(421,379)"/>
<path d="M0 0 C4.87072783 4.56630734 8.89156398 9.74976539 13 15 C12.67 15.66 12.34 16.32 12 17 C11.01 16.67 10.02 16.34 9 16 C8.3125 13.9375 8.3125 13.9375 8 12 C7.34 12 6.68 12 6 12 C5.67 10.68 5.34 9.36 5 8 C4.34 8 3.68 8 3 8 C0 2.25 0 2.25 0 0 Z " fill="#919191" transform="translate(113,93)"/>
<path d="M0 0 C5.20142984 2.44773169 7.82188865 6.40211381 11 11 C10.67 11.66 10.34 12.32 10 13 C9.01 12.67 8.02 12.34 7 12 C6.3125 9.9375 6.3125 9.9375 6 8 C5.34 8 4.68 8 4 8 C3.67 6.68 3.34 5.36 3 4 C2.34 4 1.68 4 1 4 C0.67 2.68 0.34 1.36 0 0 Z " fill="#949494" transform="translate(407,362)"/>
<path d="M0 0 C3.59634744 3.49359465 6.83451967 7.11098131 10 11 C9.67 11.66 9.34 12.32 9 13 C8.01 12.67 7.02 12.34 6 12 C5.3125 9.9375 5.3125 9.9375 5 8 C4.34 8 3.68 8 3 8 C0 2.25 0 2.25 0 0 Z " fill="#7F7F7F" transform="translate(368,309)"/>
<path d="M0 0 C2.96404505 2.80804268 5.44499019 5.18315774 7 9 C5.1875 8.875 5.1875 8.875 3 8 C0 2.96428571 0 2.96428571 0 0 Z " fill="#707070" transform="translate(421,379)"/>
<path d="M0 0 C2.96404505 2.80804268 5.44499019 5.18315774 7 9 C5.1875 8.875 5.1875 8.875 3 8 C0 2.96428571 0 2.96428571 0 0 Z " fill="#717171" transform="translate(393,342)"/>
<path d="M0 0 C2.96404505 2.80804268 5.44499019 5.18315774 7 9 C5.1875 8.875 5.1875 8.875 3 8 C0 2.96428571 0 2.96428571 0 0 Z " fill="#767676" transform="translate(129,114)"/>
<path d="M0 0 C2.96404505 2.80804268 5.44499019 5.18315774 7 9 C5.1875 8.875 5.1875 8.875 3 8 C0 2.96428571 0 2.96428571 0 0 Z " fill="#787878" transform="translate(216,108)"/>
<path d="M0 0 C2.96404505 2.80804268 5.44499019 5.18315774 7 9 C5.1875 8.875 5.1875 8.875 3 8 C0 2.96428571 0 2.96428571 0 0 Z " fill="#6F6F6F" transform="translate(113,93)"/>
</svg>
