<?xml version="1.0" encoding="UTF-8"?>
<svg xmlns="http://www.w3.org/2000/svg" xmlns:xlink="http://www.w3.org/1999/xlink" width="48px" height="48px" viewBox="0 0 128 128" version="1.1">
<g id="surface1">
<path style=" stroke:none;fill-rule:nonzero;fill:rgb(0%,0%,0%);fill-opacity:1;" d="M 95.003906 120.011719 C 94.527344 120.261719 94.554688 120.363281 95.03125 120.121094 C 95.167969 120.0625 95.292969 119.976562 95.402344 119.871094 C 95.402344 119.785156 95.390625 119.796875 95.003906 120.011719 Z M 95.953125 119.507812 C 95.726562 119.683594 95.726562 119.695312 96 119.558594 C 96.148438 119.484375 96.277344 119.398438 96.277344 119.371094 C 96.277344 119.269531 96.214844 119.296875 95.953125 119.507812 Z M 96.574219 119.128906 C 96.351562 119.308594 96.351562 119.316406 96.625 119.179688 C 96.773438 119.105469 96.902344 119.019531 96.902344 118.992188 C 96.902344 118.890625 96.835938 118.917969 96.574219 119.128906 Z M 97.199219 118.757812 C 96.976562 118.933594 96.976562 118.945312 97.246094 118.804688 C 97.398438 118.730469 97.523438 118.644531 97.523438 118.617188 C 97.523438 118.515625 97.460938 118.542969 97.199219 118.757812 Z M 98.0625 118.199219 C 97.625 118.476562 97.488281 118.660156 97.878906 118.449219 C 98.15625 118.289062 98.601562 117.945312 98.527344 117.9375 C 98.363281 118.007812 98.207031 118.09375 98.0625 118.199219 Z M 59.808594 0.03125 C 59.53125 0.0585938 58.65625 0.144531 57.867188 0.207031 C 39.691406 1.84375 22.660156 11.652344 11.878906 26.730469 C 5.914062 35.007812 2.039062 44.597656 0.582031 54.691406 C 0.0703125 58.207031 0.00390625 59.246094 0.00390625 64.015625 C 0.00390625 68.785156 0.0703125 69.820312 0.582031 73.339844 C 4.058594 97.371094 21.164062 117.5625 44.355469 125.046875 C 48.511719 126.382812 52.890625 127.296875 57.867188 127.84375 C 59.808594 128.058594 68.1875 128.058594 70.128906 127.84375 C 78.71875 126.894531 86.003906 124.769531 93.183594 121.105469 C 94.28125 120.539062 94.496094 120.390625 94.347656 120.265625 C 90.839844 115.632812 87.367188 110.976562 83.925781 106.292969 L 73.691406 92.46875 L 60.871094 73.492188 C 56.605469 67.144531 52.300781 60.820312 47.957031 54.527344 C 47.910156 54.515625 47.855469 62.949219 47.835938 73.242188 C 47.796875 91.269531 47.785156 91.996094 47.558594 92.421875 C 47.339844 92.917969 46.949219 93.324219 46.457031 93.558594 C 46.058594 93.761719 45.707031 93.796875 43.820312 93.796875 L 41.652344 93.796875 L 41.078125 93.433594 C 40.722656 93.210938 40.433594 92.894531 40.238281 92.523438 L 39.980469 91.957031 L 40.003906 66.875 L 40.042969 41.78125 L 40.433594 41.296875 C 40.695312 40.988281 41.007812 40.730469 41.359375 40.535156 C 41.871094 40.28125 42.074219 40.257812 44.238281 40.257812 C 46.792969 40.257812 47.214844 40.355469 47.882812 41.082031 C 53.074219 48.804688 58.21875 56.558594 63.324219 64.339844 C 71.632812 76.9375 82.988281 94.136719 88.570312 102.585938 L 98.703125 117.9375 L 99.214844 117.601562 C 104.09375 114.355469 108.511719 110.476562 112.363281 106.0625 C 120.425781 96.835938 125.65625 85.476562 127.425781 73.347656 C 127.9375 69.835938 128 68.792969 128 64.027344 C 128 59.257812 127.9375 58.222656 127.425781 54.703125 C 123.945312 30.671875 106.84375 10.480469 83.648438 2.996094 C 79.3125 1.617188 74.847656 0.683594 70.324219 0.207031 C 69.125 0.0859375 60.851562 -0.0546875 59.820312 0.046875 Z M 86.003906 38.742188 C 86.609375 39.042969 87.0625 39.578125 87.269531 40.21875 C 87.371094 40.542969 87.390625 47.5 87.371094 63.171875 L 87.332031 85.667969 L 83.367188 79.589844 L 79.386719 73.507812 L 79.386719 57.15625 C 79.386719 46.585938 79.433594 40.644531 79.507812 40.355469 C 79.691406 39.6875 80.136719 39.117188 80.746094 38.777344 C 81.257812 38.515625 81.445312 38.492188 83.414062 38.492188 C 85.265625 38.492188 85.589844 38.515625 86.003906 38.742188 Z M 86.003906 38.742188 "/>
</g>
</svg>
